<svg width="279" height="279" viewBox="0 0 279 279" fill="none" xmlns="http://www.w3.org/2000/svg">
<rect width="279" height="279" rx="8" fill="#F9FAFB"/>
<path d="M119 28H160" stroke="#030712" stroke-width="8" stroke-linecap="round"/>
<path d="M272 264H7L49.973 174H227.684L272 264Z" stroke="#030712" stroke-width="2" stroke-linejoin="round"/>
<mask id="path-4-inside-1_740_3936" fill="white">
<path d="M199 211C199 222.046 190.046 231 179 231H100C88.9543 231 80 222.046 80 211V173H199V211Z"/>
</mask>
<path d="M199 211C199 222.046 190.046 231 179 231H100C88.9543 231 80 222.046 80 211V173H199V211Z" fill="#E5E7EB"/>
<path d="M199 211H201V211H199ZM179 231V233V233V231ZM80 211H78V211H80ZM80 173V171H78V173H80ZM199 173H201V171H199V173ZM199 211H197C197 220.941 188.941 229 179 229V231V233C191.15 233 201 223.15 201 211H199ZM179 231V229H100V231V233H179V231ZM100 231V229C90.0589 229 82 220.941 82 211H80H78C78 223.15 87.8497 233 100 233V231ZM80 211H82V173H80H78V211H80ZM80 173V175H199V173V171H80V173ZM199 173H197V211H199H201V173H199Z" fill="black" mask="url(#path-4-inside-1_740_3936)"/>
<rect x="81.5" y="16.5" width="116" height="213" rx="18.5" stroke="#030712" stroke-width="3"/>
<circle cx="139.5" cy="171.5" r="11.5" fill="#F9FAFB" stroke="#030712" stroke-width="2"/>
<circle cx="178" cy="199" r="7" fill="#F9FAFB" stroke="#030712" stroke-width="2"/>
<circle cx="149" cy="192" r="8" fill="#F9FAFB" stroke="#030712" stroke-width="2"/>
<mask id="path-10-inside-2_740_3936" fill="white">
<path d="M191.5 172C194.015 172 196.301 172.979 198 174.574V188.425C196.301 190.021 194.015 191 191.5 191C186.253 191 182 186.747 182 181.5C182 176.253 186.253 172 191.5 172Z"/>
</mask>
<path d="M191.5 172C194.015 172 196.301 172.979 198 174.574V188.425C196.301 190.021 194.015 191 191.5 191C186.253 191 182 186.747 182 181.5C182 176.253 186.253 172 191.5 172Z" fill="#F9FAFB"/>
<path d="M198 174.574H200V173.709L199.369 173.116L198 174.574ZM198 188.425L199.369 189.883L200 189.29V188.425H198ZM191.5 172V174C193.486 174 195.287 174.77 196.631 176.032L198 174.574L199.369 173.116C197.314 171.187 194.545 170 191.5 170V172ZM198 174.574H196V188.425H198H200V174.574H198ZM198 188.425L196.631 186.967C195.286 188.229 193.485 189 191.5 189V191V193C194.545 193 197.315 191.812 199.369 189.883L198 188.425ZM191.5 191V189C187.358 189 184 185.642 184 181.5H182H180C180 187.851 185.149 193 191.5 193V191ZM182 181.5H184C184 177.358 187.358 174 191.5 174V172V170C185.149 170 180 175.149 180 181.5H182Z" fill="#030712" mask="url(#path-10-inside-2_740_3936)"/>
<mask id="path-12-inside-3_740_3936" fill="white">
<path d="M173 200C183.493 200 192 208.507 192 219C192 221.186 191.629 223.285 190.95 225.239C187.461 228.207 182.94 230 178 230H157.507C155.299 226.896 154 223.1 154 219C154 208.507 162.507 200 173 200Z"/>
</mask>
<path d="M173 200C183.493 200 192 208.507 192 219C192 221.186 191.629 223.285 190.95 225.239C187.461 228.207 182.94 230 178 230H157.507C155.299 226.896 154 223.1 154 219C154 208.507 162.507 200 173 200Z" fill="#F9FAFB"/>
<path d="M190.95 225.239L192.246 226.763L192.661 226.41L192.839 225.896L190.95 225.239ZM178 230V232V232V230ZM157.507 230L155.877 231.159L156.475 232H157.507V230ZM173 200V202C182.389 202 190 209.611 190 219H192H194C194 207.402 184.598 198 173 198V200ZM192 219H190C190 220.958 189.668 222.836 189.061 224.583L190.95 225.239L192.839 225.896C193.591 223.734 194 221.413 194 219H192ZM190.95 225.239L189.654 223.716C186.513 226.388 182.447 228 178 228V230V232C183.433 232 188.409 230.027 192.246 226.763L190.95 225.239ZM178 230V228H157.507V230V232H178V230ZM157.507 230L159.137 228.841C157.161 226.064 156 222.67 156 219H154H152C152 223.529 153.436 227.728 155.877 231.159L157.507 230ZM154 219H156C156 209.611 163.611 202 173 202V200V198C161.402 198 152 207.402 152 219H154Z" fill="#030712" mask="url(#path-12-inside-3_740_3936)"/>
<circle cx="105" cy="197" r="17" fill="#F9FAFB" stroke="#030712" stroke-width="2"/>
<mask id="path-15-inside-4_740_3936" fill="white">
<path d="M85 165C89.9706 165 94 169.029 94 174C94 178.971 89.9706 183 85 183C83.5627 183 82.2053 182.661 81 182.062V165.938C82.2052 165.338 83.5628 165 85 165Z"/>
</mask>
<path d="M85 165C89.9706 165 94 169.029 94 174C94 178.971 89.9706 183 85 183C83.5627 183 82.2053 182.661 81 182.062V165.938C82.2052 165.338 83.5628 165 85 165Z" fill="#F9FAFB"/>
<path d="M81 182.062H79V183.301L80.1097 183.852L81 182.062ZM81 165.938L80.1098 164.147L79 164.698V165.938H81ZM85 165V167C88.866 167 92 170.134 92 174H94H96C96 167.925 91.0751 163 85 163V165ZM94 174H92C92 177.866 88.866 181 85 181V183V185C91.0751 185 96 180.075 96 174H94ZM85 183V181C83.881 181 82.8275 180.737 81.8903 180.271L81 182.062L80.1097 183.852C81.583 184.585 83.2444 185 85 185V183ZM81 182.062H83V165.938H81H79V182.062H81ZM81 165.938L81.8902 167.728C82.8265 167.263 83.8803 167 85 167V165V163C83.2454 163 81.5838 163.414 80.1098 164.147L81 165.938Z" fill="#030712" mask="url(#path-15-inside-4_740_3936)"/>
</svg>
