<svg width="279" height="279" viewBox="0 0 279 279" fill="none" xmlns="http://www.w3.org/2000/svg">
<rect width="279" height="279" rx="8" fill="white"/>
<rect x="74.5" y="15.5" width="130" height="249" rx="23.5" stroke="#030712" stroke-width="3"/>
<path d="M115 30H164" stroke="black" stroke-width="8" stroke-linecap="round"/>
<path d="M151.5 183.258C147.853 183.734 143.787 184 139.5 184C123.76 184 111 180.418 111 176C111 171.582 123.76 168 139.5 168C155.24 168 168 171.582 168 176C168 177.393 166.731 178.703 164.5 179.844" stroke="black" stroke-width="0.5" stroke-linecap="round"/>
<mask id="path-5-inside-1_912_4492" fill="white">
<path d="M173 173.437C181.05 177.212 186 182.345 186 188V265H93V188C93 182.114 98.3622 176.795 107 172.982V158H173V173.437Z"/>
</mask>
<path d="M173 173.437H171V174.708L172.151 175.247L173 173.437ZM186 265V267H188V265H186ZM93 265H91V267H93V265ZM107 172.982L107.808 174.812L109 174.286V172.982H107ZM107 158V156H105V158H107ZM173 158H175V156H173V158ZM173 173.437L172.151 175.247C180.058 178.956 184 183.59 184 188H186H188C188 181.1 182.042 175.468 173.849 171.626L173 173.437ZM186 188H184V265H186H188V188H186ZM186 265V263H93V265V267H186V265ZM93 265H95V188H93H91V265H93ZM93 188H95C95 185.707 96.0361 183.375 98.2093 181.093C100.392 178.8 103.644 176.65 107.808 174.812L107 172.982L106.192 171.153C101.719 173.128 97.9699 175.544 95.3123 178.335C92.645 181.136 91 184.407 91 188H93ZM107 172.982H109V158H107H105V172.982H107ZM107 158V160H173V158V156H107V158ZM173 158H171V173.437H173H175V158H173Z" fill="black" mask="url(#path-5-inside-1_912_4492)"/>
<path d="M140.5 154C140.5 153.724 140.276 153.5 140 153.5C139.724 153.5 139.5 153.724 139.5 154H140H140.5ZM140 228.5L142.887 223.5H137.113L140 228.5ZM139.5 156.661C139.5 156.937 139.724 157.161 140 157.161C140.276 157.161 140.5 156.937 140.5 156.661H140H139.5ZM140.5 161.982C140.5 161.706 140.276 161.482 140 161.482C139.724 161.482 139.5 161.706 139.5 161.982H140H140.5ZM139.5 167.304C139.5 167.58 139.724 167.804 140 167.804C140.276 167.804 140.5 167.58 140.5 167.304H140H139.5ZM140.5 172.625C140.5 172.349 140.276 172.125 140 172.125C139.724 172.125 139.5 172.349 139.5 172.625H140H140.5ZM139.5 177.946C139.5 178.223 139.724 178.446 140 178.446C140.276 178.446 140.5 178.223 140.5 177.946H140H139.5ZM140.5 183.268C140.5 182.992 140.276 182.768 140 182.768C139.724 182.768 139.5 182.992 139.5 183.268H140H140.5ZM139.5 188.589C139.5 188.865 139.724 189.089 140 189.089C140.276 189.089 140.5 188.865 140.5 188.589H140H139.5ZM140.5 193.911C140.5 193.635 140.276 193.411 140 193.411C139.724 193.411 139.5 193.635 139.5 193.911H140H140.5ZM139.5 199.232C139.5 199.508 139.724 199.732 140 199.732C140.276 199.732 140.5 199.508 140.5 199.232H140H139.5ZM140.5 204.554C140.5 204.277 140.276 204.054 140 204.054C139.724 204.054 139.5 204.277 139.5 204.554H140H140.5ZM139.5 209.875C139.5 210.151 139.724 210.375 140 210.375C140.276 210.375 140.5 210.151 140.5 209.875H140H139.5ZM140.5 215.196C140.5 214.92 140.276 214.696 140 214.696C139.724 214.696 139.5 214.92 139.5 215.196H140H140.5ZM139.5 220.518C139.5 220.794 139.724 221.018 140 221.018C140.276 221.018 140.5 220.794 140.5 220.518H140H139.5ZM140.5 225.839C140.5 225.563 140.276 225.339 140 225.339C139.724 225.339 139.5 225.563 139.5 225.839H140H140.5ZM140 154H139.5V156.661H140H140.5V154H140ZM140 161.982H139.5V167.304H140H140.5V161.982H140ZM140 172.625H139.5V177.946H140H140.5V172.625H140ZM140 183.268H139.5V188.589H140H140.5V183.268H140ZM140 193.911H139.5V199.232H140H140.5V193.911H140ZM140 204.554H139.5V209.875H140H140.5V204.554H140ZM140 215.196H139.5V220.518H140H140.5V215.196H140Z" fill="black"/>
<path d="M140.059 144.234C150.18 144.234 159.293 146.054 165.835 148.951C169.107 150.4 171.69 152.098 173.439 153.931C175.184 155.758 176.059 157.668 176.059 159.588C176.058 161.508 175.184 163.417 173.439 165.244C171.69 167.076 169.107 168.775 165.835 170.225C159.293 173.122 150.18 174.94 140.059 174.94C129.938 174.94 120.825 173.122 114.283 170.225C111.011 168.775 108.428 167.076 106.678 165.244C104.933 163.417 104.059 161.508 104.059 159.588C104.059 157.668 104.933 155.758 106.678 153.931C108.428 152.098 111.011 150.4 114.283 148.951C120.825 146.054 129.937 144.234 140.059 144.234Z" fill="white" stroke="black" stroke-width="2.11765"/>
<path d="M140.059 144.235C150.18 144.235 159.293 146.055 165.835 148.952C169.107 150.401 171.69 152.099 173.439 153.931C175.184 155.758 176.059 157.668 176.059 159.589C176.058 161.509 175.184 163.418 173.439 165.245C171.69 167.077 169.107 168.776 165.835 170.225C159.293 173.123 150.18 174.941 140.059 174.941C129.938 174.941 120.825 173.123 114.283 170.225C111.011 168.776 108.428 167.077 106.678 165.245C104.933 163.418 104.059 161.509 104.059 159.589C104.059 157.669 104.933 155.758 106.678 153.931C108.428 152.099 111.011 150.401 114.283 148.952C120.825 146.055 129.937 144.235 140.059 144.235Z" stroke="black" stroke-width="2.11765"/>
<path d="M140.059 141.059C150.204 141.059 159.343 142.529 165.907 144.874C169.194 146.048 171.779 147.421 173.522 148.893C175.27 150.368 176.059 151.841 176.059 153.235C176.059 154.63 175.27 156.102 173.522 157.578C171.779 159.05 169.194 160.423 165.907 161.597C159.343 163.941 150.204 165.412 140.059 165.412C129.914 165.412 120.775 163.941 114.21 161.597C110.923 160.423 108.339 159.05 106.596 157.578C104.848 156.102 104.059 154.63 104.059 153.235C104.059 151.84 104.848 150.369 106.596 148.893C108.339 147.421 110.923 146.048 114.21 144.874C120.775 142.529 129.914 141.059 140.059 141.059Z" stroke="black" stroke-width="2.11765"/>
<path d="M140.059 141.059C150.204 141.059 159.343 142.529 165.907 144.874C169.194 146.048 171.779 147.421 173.522 148.893C175.27 150.368 176.059 151.841 176.059 153.235C176.059 154.63 175.27 156.102 173.522 157.578C171.779 159.05 169.194 160.423 165.907 161.597C159.343 163.941 150.204 165.412 140.059 165.412C129.914 165.412 120.775 163.941 114.21 161.597C110.923 160.423 108.339 159.05 106.596 157.578C104.848 156.102 104.059 154.63 104.059 153.235C104.059 151.84 104.848 150.369 106.596 148.893C108.339 147.421 110.923 146.048 114.21 144.874C120.775 142.529 129.914 141.059 140.059 141.059Z" fill="white" stroke="black" stroke-width="2.11765"/>
<path d="M104.059 153.765V159.059" stroke="black" stroke-width="2.11765" stroke-linecap="round"/>
<path d="M176.059 153.765V159.059" stroke="black" stroke-width="2.11765" stroke-linecap="round"/>
<path d="M140 150V161" stroke="black" stroke-linecap="round" stroke-linejoin="round" stroke-dasharray="5 5"/>
<path d="M140 144.5C148.804 144.5 156.757 145.504 162.492 147.117C165.363 147.925 167.65 148.877 169.208 149.913C170.785 150.962 171.5 152.015 171.5 153C171.5 153.985 170.785 155.038 169.208 156.087C167.65 157.123 165.363 158.075 162.492 158.883C156.757 160.496 148.804 161.5 140 161.5C131.196 161.5 123.243 160.496 117.508 158.883C114.637 158.075 112.35 157.123 110.792 156.087C109.215 155.038 108.5 153.985 108.5 153C108.5 152.015 109.215 150.962 110.792 149.913C112.35 148.877 114.637 147.925 117.508 147.117C123.243 145.504 131.196 144.5 140 144.5Z" stroke="black"/>
<path d="M104 193V251" stroke="black" stroke-width="0.5" stroke-linecap="round" stroke-linejoin="round"/>
<path d="M176 213.5C176 213.5 176 197.5 176 191.5C176 185.5 168 183 168 183" stroke="black" stroke-width="0.5" stroke-linecap="round" stroke-linejoin="round"/>
<circle cx="140" cy="131" r="15" fill="white" stroke="black" stroke-width="2"/>
<mask id="path-19-inside-2_912_4492" fill="white">
<path d="M120 244C128.837 244 136 251.163 136 260C136 261.746 135.719 263.427 135.202 265H104.798C104.281 263.427 104 261.746 104 260C104 251.163 111.163 244 120 244Z"/>
</mask>
<path d="M120 244C128.837 244 136 251.163 136 260C136 261.746 135.719 263.427 135.202 265H104.798C104.281 263.427 104 261.746 104 260C104 251.163 111.163 244 120 244Z" fill="white"/>
<path d="M135.202 265V267H136.65L137.102 265.625L135.202 265ZM104.798 265L102.898 265.625L103.35 267H104.798V265ZM120 244V246C127.732 246 134 252.268 134 260H136H138C138 250.059 129.941 242 120 242V244ZM136 260H134C134 261.531 133.754 263.001 133.302 264.375L135.202 265L137.102 265.625C137.684 263.853 138 261.962 138 260H136ZM135.202 265V263H104.798V265V267H135.202V265ZM104.798 265L106.698 264.375C106.246 263.001 106 261.531 106 260H104H102C102 261.962 102.316 263.853 102.898 265.625L104.798 265ZM104 260H106C106 252.268 112.268 246 120 246V244V242C110.059 242 102 250.059 102 260H104Z" fill="black" mask="url(#path-19-inside-2_912_4492)"/>
<mask id="path-21-inside-3_912_4492" fill="white">
<path d="M150 235C158.837 235 166 242.163 166 251C166 257.025 162.67 262.271 157.75 265H142.25C137.33 262.271 134 257.025 134 251C134 242.163 141.163 235 150 235Z"/>
</mask>
<path d="M150 235C158.837 235 166 242.163 166 251C166 257.025 162.67 262.271 157.75 265H142.25C137.33 262.271 134 257.025 134 251C134 242.163 141.163 235 150 235Z" fill="white"/>
<path d="M157.75 265V267H158.268L158.72 266.749L157.75 265ZM142.25 265L141.28 266.749L141.732 267H142.25V265ZM150 235V237C157.732 237 164 243.268 164 251H166H168C168 241.059 159.941 233 150 233V235ZM166 251H164C164 256.269 161.09 260.86 156.78 263.251L157.75 265L158.72 266.749C164.249 263.682 168 257.781 168 251H166ZM157.75 265V263H142.25V265V267H157.75V265ZM142.25 265L143.22 263.251C138.91 260.86 136 256.269 136 251H134H132C132 257.781 135.751 263.682 141.28 266.749L142.25 265ZM134 251H136C136 243.268 142.268 237 150 237V235V233C140.059 233 132 241.059 132 251H134Z" fill="black" mask="url(#path-21-inside-3_912_4492)"/>
<path d="M193.709 72.0626L184.209 67.5626C184.209 67.5626 179.211 70.2743 175.709 71.0626C172.275 71.8356 166.709 71.5626 166.709 71.5626C166.709 71.5626 163.649 76.0859 161.209 78.5626C159.069 80.7354 155.209 83.5626 155.209 83.5626L149.709 93.5626C149.709 93.5626 146.209 98.5645 143.209 99.0626C140.209 99.5607 135.709 99.0607 134.209 94.5626C132.709 90.0645 139.617 82.2844 144.209 75.0626C149.429 66.8537 151.694 61.0755 159.709 55.5626C167.953 49.892 174.804 51.4771 184.209 48.0626C190.139 45.9096 192.933 41.4184 199.209 42.0626C203.469 42.4998 205.318 44.7745 209.209 46.5626C225.475 54.037 233.007 62.1071 250.209 67.0626C256.355 68.8332 266.209 70.5626 266.209 70.5626V116.063C266.209 116.063 256.6 112.818 250.209 112.563C241.447 112.213 228.209 117.063 228.209 117.063C228.209 117.063 222.209 118.561 213.709 116.063C205.209 113.564 208.209 112.564 195.709 111.563C183.209 110.561 166.209 118.064 162.209 117.563C158.209 117.061 154.259 116.046 153.209 112.063C152.208 108.263 154.709 104.86 157.709 103.063C160.709 101.265 168.977 97.0697 176.709 94.5626C182.25 92.7659 185.989 93.6487 191.209 91.0626C195.094 89.1378 200.209 84.5626 200.209 84.5626L193.709 72.0626ZM193.709 72.0626L192.709 70.0626" stroke="black" stroke-width="2" stroke-linecap="round" stroke-linejoin="round"/>
<path d="M200 84.5L191.012 91C191.012 91 178 89 176.5 85.5C175 82 175.525 83.5 174.013 79.5C172.5 75.5 185.012 68 185.012 68L194.012 71.5L200 84.5ZM200 84.5L192.5 82.5" stroke="black" stroke-linecap="round" stroke-linejoin="round"/>
</svg>
