<svg width="279" height="279" viewBox="0 0 279 279" fill="none" xmlns="http://www.w3.org/2000/svg">
<rect width="279" height="279" rx="8" fill="#F9FAFB"/>
<mask id="path-2-inside-1_740_3902" fill="white">
<path d="M199 211C199 222.046 190.046 231 179 231H100C88.9543 231 80 222.046 80 211V173H199V211Z"/>
</mask>
<path d="M199 211C199 222.046 190.046 231 179 231H100C88.9543 231 80 222.046 80 211V173H199V211Z" fill="#E5E7EB"/>
<path d="M199 211H201V211H199ZM179 231V233V233V231ZM80 211H78V211H80ZM80 173V171H78V173H80ZM199 173H201V171H199V173ZM199 211H197C197 220.941 188.941 229 179 229V231V233C191.15 233 201 223.15 201 211H199ZM179 231V229H100V231V233H179V231ZM100 231V229C90.0589 229 82 220.941 82 211H80H78C78 223.15 87.8497 233 100 233V231ZM80 211H82V173H80H78V211H80ZM80 173V175H199V173V171H80V173ZM199 173H197V211H199H201V173H199Z" fill="black" mask="url(#path-2-inside-1_740_3902)"/>
<path d="M272 264H7L49.973 174H227.684L272 264Z" stroke="#030712" stroke-width="2" stroke-linejoin="round"/>
<path d="M108.551 81.5865C124.658 56.4982 148.059 71.3839 148.059 71.3839C148.059 71.3839 159.407 70.5239 169.915 83.2828C180.422 96.0418 175.39 112.722 180.422 131.331C182.903 140.506 187.562 145.216 187.147 154.719C186.661 165.854 175.379 180.657 175.379 180.657L104.794 180.248C104.794 180.248 93.5118 165.444 93.0256 154.309C92.6106 144.807 97.2692 140.097 99.7503 130.922C104.783 112.313 92.443 106.675 108.551 81.5865Z" fill="#F9FAFB" stroke="#030712" stroke-width="2" stroke-linecap="round"/>
<path d="M125.51 173.823C128.032 169.145 125.5 151.645 125.5 151.645L153.752 151.855C153.752 151.855 151.6 168.928 154.138 173.606C156.676 178.283 191.294 176.94 205.32 193.166C218.828 208.792 218.012 245.211 218.012 245.211H62.0094C62.0094 245.211 61.1988 208.792 74.6203 193.166C88.5569 176.94 122.988 178.5 125.51 173.823Z" fill="#F9FAFB" stroke="#030712" stroke-width="2" stroke-linecap="round"/>
<path d="M138.479 163.288C117.541 162.58 112 116.088 112 116.088C112 116.088 124.819 113.972 131.334 109.285C138.503 104.126 144.783 91 144.783 91C144.783 91 149.113 100.858 153.609 105.883C158.016 110.807 167.059 116.088 167.059 116.088C167.059 116.088 159.833 164.01 138.479 163.288Z" fill="#F9FAFB" stroke="#030712" stroke-width="2" stroke-linecap="round"/>
<path d="M91 244.663L92.6812 220" stroke="#030712" stroke-width="2" stroke-linecap="round"/>
<path d="M188.09 244.663L186.409 220" stroke="#030712" stroke-width="2" stroke-linecap="round"/>
<rect x="81.5" y="16.5" width="116" height="213" rx="18.5" stroke="#030712" stroke-width="3"/>
<path d="M119 28H160" stroke="#030712" stroke-width="8" stroke-linecap="round"/>
</svg>
