<svg width="267" height="250" viewBox="0 0 267 250" fill="none" xmlns="http://www.w3.org/2000/svg">
<mask id="path-1-inside-1_910_4446" fill="white">
<path d="M193 196L192.993 196.517C192.724 207.152 184.152 215.724 173.517 215.993L173 216H94L93.4834 215.993C82.8481 215.724 74.2765 207.152 74.0068 196.517L74 196V158H77V196C77 205.389 84.6112 213 94 213H173C182.389 213 190 205.389 190 196V158H193V196Z"/>
</mask>
<path d="M193 196L192.993 196.517C192.724 207.152 184.152 215.724 173.517 215.993L173 216H94L93.4834 215.993C82.8481 215.724 74.2765 207.152 74.0068 196.517L74 196V158H77V196C77 205.389 84.6112 213 94 213H173C182.389 213 190 205.389 190 196V158H193V196Z" fill="#F3F4F6"/>
<path d="M193 196L195 196.026L195 196.013V196H193ZM192.993 196.517L194.993 196.567L194.993 196.555L194.993 196.543L192.993 196.517ZM173.517 215.993L173.543 217.993L173.555 217.993L173.567 217.993L173.517 215.993ZM173 216V218H173.013L173.026 218L173 216ZM94 216L93.9735 218L93.9868 218H94V216ZM93.4834 215.993L93.4327 217.993L93.4448 217.993L93.4569 217.993L93.4834 215.993ZM74.0068 196.517L72.007 196.543L72.0072 196.555L72.0075 196.567L74.0068 196.517ZM74 196H72V196.013L72.0002 196.026L74 196ZM74 158V156H72V158H74ZM77 158H79V156H77V158ZM190 158V156H188V158H190ZM193 158H195V156H193V158ZM193 196L191 195.974L190.993 196.49L192.993 196.517L194.993 196.543L195 196.026L193 196ZM192.993 196.517L190.994 196.466C190.751 206.036 183.036 213.751 173.466 213.994L173.517 215.993L173.567 217.993C185.267 217.696 194.696 208.267 194.993 196.567L192.993 196.517ZM173.517 215.993L173.49 213.993L172.974 214L173 216L173.026 218L173.543 217.993L173.517 215.993ZM173 216V214H94V216V218H173V216ZM94 216L94.0265 214L93.5099 213.993L93.4834 215.993L93.4569 217.993L93.9735 218L94 216ZM93.4834 215.993L93.5341 213.994C83.9637 213.751 76.2489 206.036 76.0062 196.466L74.0068 196.517L72.0075 196.567C72.3041 208.267 81.7326 217.696 93.4327 217.993L93.4834 215.993ZM74.0068 196.517L76.0067 196.49L75.9998 195.974L74 196L72.0002 196.026L72.007 196.543L74.0068 196.517ZM74 196H76V158H74H72V196H74ZM74 158V160H77V158V156H74V158ZM77 158H75V196H77H79V158H77ZM77 196H75C75 206.493 83.5066 215 94 215V213V211C85.7157 211 79 204.284 79 196H77ZM94 213V215H173V213V211H94V213ZM173 213V215C183.493 215 192 206.493 192 196H190H188C188 204.284 181.284 211 173 211V213ZM190 196H192V158H190H188V196H190ZM190 158V160H193V158V156H190V158ZM193 158H191V196H193H195V158H193Z" fill="#F9FAFB" mask="url(#path-1-inside-1_910_4446)"/>
<path d="M113 13H154" stroke="#F9FAFB" stroke-width="8" stroke-linecap="round"/>
<rect x="75.5" y="1.5" width="116" height="213" rx="18.5" stroke="#F9FAFB" stroke-width="3"/>
<path d="M266 249H1L43.973 159H221.684L266 249Z" stroke="#F9FAFB" stroke-width="2" stroke-linejoin="round"/>
<circle cx="143" cy="177" r="8" fill="#F3F4F6" fill-opacity="0.5" stroke="#F9FAFB" stroke-width="2"/>
<mask id="path-7-inside-2_910_4446" fill="white">
<path d="M185.5 164C188.015 164 190.301 164.979 192 166.574V180.425C190.301 182.021 188.015 183 185.5 183C180.253 183 176 178.747 176 173.5C176 168.253 180.253 164 185.5 164Z"/>
</mask>
<path d="M185.5 164C188.015 164 190.301 164.979 192 166.574V180.425C190.301 182.021 188.015 183 185.5 183C180.253 183 176 178.747 176 173.5C176 168.253 180.253 164 185.5 164Z" fill="#F3F4F6" fill-opacity="0.5"/>
<path d="M192 166.574H194V165.709L193.369 165.116L192 166.574ZM192 180.425L193.369 181.883L194 181.29V180.425H192ZM185.5 164V166C187.486 166 189.287 166.77 190.631 168.032L192 166.574L193.369 165.116C191.314 163.187 188.545 162 185.5 162V164ZM192 166.574H190V180.425H192H194V166.574H192ZM192 180.425L190.631 178.967C189.286 180.229 187.485 181 185.5 181V183V185C188.545 185 191.315 183.812 193.369 181.883L192 180.425ZM185.5 183V181C181.358 181 178 177.642 178 173.5H176H174C174 179.851 179.149 185 185.5 185V183ZM176 173.5H178C178 169.358 181.358 166 185.5 166V164V162C179.149 162 174 167.149 174 173.5H176Z" fill="#F9FAFB" mask="url(#path-7-inside-2_910_4446)"/>
<mask id="path-9-inside-3_910_4446" fill="white">
<path d="M167 185C177.493 185 186 193.507 186 204C186 206.186 185.629 208.285 184.95 210.239C181.461 213.207 176.94 215 172 215H151.507C149.299 211.896 148 208.1 148 204C148 193.507 156.507 185 167 185Z"/>
</mask>
<path d="M167 185C177.493 185 186 193.507 186 204C186 206.186 185.629 208.285 184.95 210.239C181.461 213.207 176.94 215 172 215H151.507C149.299 211.896 148 208.1 148 204C148 193.507 156.507 185 167 185Z" fill="#F3F4F6" fill-opacity="0.5"/>
<path d="M184.95 210.239L186.246 211.763L186.661 211.41L186.839 210.896L184.95 210.239ZM172 215V217V217V215ZM151.507 215L149.877 216.159L150.475 217H151.507V215ZM167 185V187C176.389 187 184 194.611 184 204H186H188C188 192.402 178.598 183 167 183V185ZM186 204H184C184 205.958 183.668 207.836 183.061 209.583L184.95 210.239L186.839 210.896C187.591 208.734 188 206.413 188 204H186ZM184.95 210.239L183.654 208.716C180.513 211.388 176.447 213 172 213V215V217C177.433 217 182.409 215.027 186.246 211.763L184.95 210.239ZM172 215V213H151.507V215V217H172V215ZM151.507 215L153.137 213.841C151.161 211.064 150 207.67 150 204H148H146C146 208.529 147.436 212.728 149.877 216.159L151.507 215ZM148 204H150C150 194.611 157.611 187 167 187V185V183C155.402 183 146 192.402 146 204H148Z" fill="#F9FAFB" mask="url(#path-9-inside-3_910_4446)"/>
<circle cx="99" cy="182" r="17" fill="#F3F4F6" fill-opacity="0.5" stroke="#F9FAFB" stroke-width="2"/>
</svg>
