<svg width="139" height="83" viewBox="0 0 139 83" fill="none" xmlns="http://www.w3.org/2000/svg">
<circle cx="12.5" cy="70.5" r="11.5" fill="#F3F4F6" fill-opacity="0.5" stroke="#F9FAFB" stroke-width="2"/>
<path d="M64.7091 31.0626L55.2091 26.5626C55.2091 26.5626 50.2113 29.2743 46.7091 30.0626C43.2749 30.8356 37.7091 30.5626 37.7091 30.5626C37.7091 30.5626 34.6489 35.0859 32.2091 37.5626C30.0686 39.7354 26.2091 42.5626 26.2091 42.5626L20.7091 52.5626C20.7091 52.5626 17.2089 57.5645 14.2091 58.0626C11.2092 58.5607 6.70924 58.0607 5.20909 53.5626C3.70893 49.0645 10.6169 41.2844 15.2091 34.0626C20.4289 25.8537 22.6941 20.0755 30.7091 14.5626C38.9533 8.89204 45.8036 10.4771 55.2091 7.06258C61.1395 4.90961 63.9329 0.418437 70.2091 1.06258C74.4691 1.49981 76.3178 3.77453 80.2091 5.56258C96.4754 13.037 104.007 21.1071 121.209 26.0626C127.355 27.8332 137.209 29.5626 137.209 29.5626V75.0626C137.209 75.0626 127.6 71.8178 121.209 71.5626C112.447 71.2127 99.2091 76.0626 99.2091 76.0626C99.2091 76.0626 93.2092 77.5607 84.7091 75.0626C76.209 72.5645 79.209 71.5645 66.7091 70.5626C54.2092 69.5607 37.209 77.0645 33.2091 76.5626C29.2092 76.0607 25.2588 75.0456 24.2091 71.0626C23.2077 67.2627 25.709 63.8605 28.7091 62.0626C31.7092 60.2647 39.9768 56.0697 47.7091 53.5626C53.2503 51.7659 56.9894 52.6487 62.2091 50.0626C66.0939 48.1378 71.2091 43.5626 71.2091 43.5626L64.7091 31.0626ZM64.7091 31.0626L63.7091 29.0626" stroke="#F9FAFB" stroke-width="2" stroke-linecap="round" stroke-linejoin="round"/>
<path d="M71 43.5L62.0122 50C62.0122 50 49 48 47.5 44.5C46 41 46.5253 42.5 45.0126 38.5C43.5 34.5 56.0122 27 56.0122 27L65.0122 30.5L71 43.5ZM71 43.5L63.5 41.5" stroke="#F9FAFB" stroke-linecap="round" stroke-linejoin="round"/>
</svg>
