<svg width="279" height="279" viewBox="0 0 279 279" fill="none" xmlns="http://www.w3.org/2000/svg">
<g clip-path="url(#clip0_740_3961)">
<rect width="279" height="279" rx="8" fill="#F9FAFB"/>
<mask id="path-2-inside-1_740_3961" fill="white">
<path d="M206 241C206 254.807 194.807 266 181 266H98C84.1929 266 73 254.807 73 241V199.009H206V241Z"/>
</mask>
<path d="M206 241C206 254.807 194.807 266 181 266H98C84.1929 266 73 254.807 73 241V199.009H206V241Z" fill="#E5E7EB"/>
<path d="M73 199.009V197.009H71V199.009H73ZM206 199.009H208V197.009H206V199.009ZM206 241H204C204 253.703 193.703 264 181 264V266V268C195.912 268 208 255.912 208 241H206ZM181 266V264H98V266V268H181V266ZM98 266V264C85.2975 264 75 253.703 75 241H73H71C71 255.912 83.0883 268 98 268V266ZM73 241H75V199.009H73H71V241H73ZM73 199.009V201.009H206V199.009V197.009H73V199.009ZM206 199.009H204V241H206H208V199.009H206Z" fill="black" mask="url(#path-2-inside-1_740_3961)"/>
<rect x="94" y="201" width="91" height="63" fill="#F3F4F6"/>
<rect x="74.5" y="15.5" width="130" height="249" rx="23.5" stroke="#030712" stroke-width="3"/>
<path d="M272 290H7L49.973 200H227.684L272 290Z" stroke="#030712" stroke-width="2" stroke-linejoin="round"/>
<path d="M115 30H164" stroke="#030712" stroke-width="8" stroke-linecap="round"/>
<path d="M151.5 183.258C147.853 183.734 143.787 184 139.5 184C123.76 184 111 180.418 111 176C111 171.582 123.76 168 139.5 168C155.24 168 168 171.582 168 176C168 177.393 166.731 178.703 164.5 179.844" stroke="#030712" stroke-width="0.5" stroke-linecap="round"/>
<mask id="path-9-inside-2_740_3961" fill="white">
<path d="M173 173.437C181.05 177.212 186 182.345 186 188V265H93V188C93 182.114 98.3622 176.795 107 172.982V158H173V173.437Z"/>
</mask>
<path d="M173 173.437H171V174.708L172.151 175.247L173 173.437ZM186 265V267H188V265H186ZM93 265H91V267H93V265ZM107 172.982L107.808 174.812L109 174.286V172.982H107ZM107 158V156H105V158H107ZM173 158H175V156H173V158ZM173 173.437L172.151 175.247C180.058 178.956 184 183.59 184 188H186H188C188 181.1 182.042 175.468 173.849 171.626L173 173.437ZM186 188H184V265H186H188V188H186ZM186 265V263H93V265V267H186V265ZM93 265H95V188H93H91V265H93ZM93 188H95C95 185.707 96.0361 183.375 98.2093 181.093C100.392 178.8 103.644 176.65 107.808 174.812L107 172.982L106.192 171.153C101.719 173.128 97.9699 175.544 95.3123 178.335C92.645 181.136 91 184.407 91 188H93ZM107 172.982H109V158H107H105V172.982H107ZM107 158V160H173V158V156H107V158ZM173 158H171V173.437H173H175V158H173Z" fill="#030712" mask="url(#path-9-inside-2_740_3961)"/>
<path d="M140.059 144.234C150.18 144.234 159.293 146.054 165.835 148.951C169.107 150.4 171.69 152.098 173.439 153.931C175.184 155.758 176.059 157.668 176.059 159.588C176.058 161.508 175.184 163.417 173.439 165.244C171.69 167.076 169.107 168.775 165.835 170.225C159.293 173.122 150.18 174.94 140.059 174.94C129.938 174.94 120.825 173.122 114.283 170.225C111.011 168.775 108.428 167.076 106.678 165.244C104.933 163.417 104.059 161.508 104.059 159.588C104.059 157.668 104.933 155.758 106.678 153.931C108.428 152.098 111.011 150.4 114.283 148.951C120.825 146.054 129.937 144.234 140.059 144.234Z" fill="#F9FAFB" stroke="#030712" stroke-width="2.11765"/>
<path d="M140.059 144.235C150.18 144.235 159.293 146.054 165.835 148.952C169.107 150.401 171.69 152.099 173.439 153.931C175.184 155.758 176.059 157.668 176.059 159.588C176.058 161.508 175.184 163.418 173.439 165.245C171.69 167.077 169.107 168.776 165.835 170.225C159.293 173.122 150.18 174.941 140.059 174.941C129.938 174.941 120.825 173.122 114.283 170.225C111.011 168.776 108.428 167.077 106.678 165.245C104.933 163.418 104.059 161.508 104.059 159.588C104.059 157.668 104.933 155.758 106.678 153.931C108.428 152.099 111.011 150.401 114.283 148.952C120.825 146.054 129.937 144.235 140.059 144.235Z" stroke="#030712" stroke-width="2.11765"/>
<path d="M140.059 141.059C150.204 141.059 159.343 142.529 165.907 144.874C169.194 146.048 171.779 147.421 173.522 148.893C175.27 150.368 176.059 151.841 176.059 153.235C176.059 154.63 175.27 156.102 173.522 157.578C171.779 159.05 169.194 160.423 165.907 161.597C159.343 163.941 150.204 165.412 140.059 165.412C129.914 165.412 120.775 163.941 114.21 161.597C110.923 160.423 108.339 159.05 106.596 157.578C104.848 156.102 104.059 154.63 104.059 153.235C104.059 151.84 104.848 150.369 106.596 148.893C108.339 147.421 110.923 146.048 114.21 144.874C120.775 142.529 129.914 141.059 140.059 141.059Z" stroke="#030712" stroke-width="2.11765"/>
<path d="M140.059 141.059C150.204 141.059 159.343 142.529 165.907 144.874C169.194 146.048 171.779 147.421 173.522 148.893C175.27 150.368 176.059 151.841 176.059 153.235C176.059 154.63 175.27 156.102 173.522 157.578C171.779 159.05 169.194 160.423 165.907 161.597C159.343 163.941 150.204 165.412 140.059 165.412C129.914 165.412 120.775 163.941 114.21 161.597C110.923 160.423 108.339 159.05 106.596 157.578C104.848 156.102 104.059 154.63 104.059 153.235C104.059 151.84 104.848 150.369 106.596 148.893C108.339 147.421 110.923 146.048 114.21 144.874C120.775 142.529 129.914 141.059 140.059 141.059Z" fill="#F9FAFB" stroke="#030712" stroke-width="2.11765"/>
<path d="M104.059 153.765V159.059" stroke="#030712" stroke-width="2.11765" stroke-linecap="round"/>
<path d="M176.059 153.765V159.059" stroke="#030712" stroke-width="2.11765" stroke-linecap="round"/>
<path d="M140 144.5C148.804 144.5 156.757 145.504 162.492 147.117C165.363 147.925 167.65 148.877 169.208 149.913C170.785 150.962 171.5 152.015 171.5 153C171.5 153.985 170.785 155.038 169.208 156.087C167.65 157.123 165.363 158.075 162.492 158.883C156.757 160.496 148.804 161.5 140 161.5C131.196 161.5 123.243 160.496 117.508 158.883C114.637 158.075 112.35 157.123 110.792 156.087C109.215 155.038 108.5 153.985 108.5 153C108.5 152.015 109.215 150.962 110.792 149.913C112.35 148.877 114.637 147.925 117.508 147.117C123.243 145.504 131.196 144.5 140 144.5Z" stroke="#030712"/>
<path d="M104 193V251" stroke="#030712" stroke-width="0.5" stroke-linecap="round" stroke-linejoin="round"/>
<path d="M176 213.5C176 213.5 176 197.5 176 191.5C176 185.5 168 183 168 183" stroke="#030712" stroke-width="0.5" stroke-linecap="round" stroke-linejoin="round"/>
<circle cx="120" cy="230" r="15" fill="#F9FAFB" stroke="#030712" stroke-width="2"/>
<circle cx="160" cy="222" r="15" fill="#F9FAFB" stroke="#030712" stroke-width="2"/>
<circle cx="136" cy="204" r="15" fill="#F9FAFB" stroke="#030712" stroke-width="2"/>
<mask id="path-23-inside-3_740_3961" fill="white">
<path d="M120 244C128.837 244 136 251.163 136 260C136 261.746 135.719 263.427 135.202 265H104.798C104.281 263.427 104 261.746 104 260C104 251.163 111.163 244 120 244Z"/>
</mask>
<path d="M120 244C128.837 244 136 251.163 136 260C136 261.746 135.719 263.427 135.202 265H104.798C104.281 263.427 104 261.746 104 260C104 251.163 111.163 244 120 244Z" fill="#F9FAFB"/>
<path d="M135.202 265V267H136.65L137.102 265.625L135.202 265ZM104.798 265L102.898 265.625L103.35 267H104.798V265ZM120 244V246C127.732 246 134 252.268 134 260H136H138C138 250.059 129.941 242 120 242V244ZM136 260H134C134 261.531 133.754 263.001 133.302 264.375L135.202 265L137.102 265.625C137.684 263.853 138 261.962 138 260H136ZM135.202 265V263H104.798V265V267H135.202V265ZM104.798 265L106.698 264.375C106.246 263.001 106 261.531 106 260H104H102C102 261.962 102.316 263.853 102.898 265.625L104.798 265ZM104 260H106C106 252.268 112.268 246 120 246V244V242C110.059 242 102 250.059 102 260H104Z" fill="#030712" mask="url(#path-23-inside-3_740_3961)"/>
<mask id="path-25-inside-4_740_3961" fill="white">
<path d="M150 235C158.837 235 166 242.163 166 251C166 257.025 162.67 262.271 157.75 265H142.25C137.33 262.271 134 257.025 134 251C134 242.163 141.163 235 150 235Z"/>
</mask>
<path d="M150 235C158.837 235 166 242.163 166 251C166 257.025 162.67 262.271 157.75 265H142.25C137.33 262.271 134 257.025 134 251C134 242.163 141.163 235 150 235Z" fill="#F9FAFB"/>
<path d="M157.75 265V267H158.268L158.72 266.749L157.75 265ZM142.25 265L141.28 266.749L141.732 267H142.25V265ZM150 235V237C157.732 237 164 243.268 164 251H166H168C168 241.059 159.941 233 150 233V235ZM166 251H164C164 256.269 161.09 260.86 156.78 263.251L157.75 265L158.72 266.749C164.249 263.682 168 257.781 168 251H166ZM157.75 265V263H142.25V265V267H157.75V265ZM142.25 265L143.22 263.251C138.91 260.86 136 256.269 136 251H134H132C132 257.781 135.751 263.682 141.28 266.749L142.25 265ZM134 251H136C136 243.268 142.268 237 150 237V235V233C140.059 233 132 241.059 132 251H134Z" fill="#030712" mask="url(#path-25-inside-4_740_3961)"/>
<path d="M194.709 79.0626L185.209 74.5626C185.209 74.5626 180.211 77.2743 176.709 78.0626C173.275 78.8356 167.709 78.5626 167.709 78.5626C167.709 78.5626 164.649 83.0859 162.209 85.5626C160.069 87.7354 156.209 90.5626 156.209 90.5626L150.709 100.563C150.709 100.563 147.209 105.564 144.209 106.063C141.209 106.561 136.709 106.061 135.209 101.563C133.709 97.0645 140.617 89.2844 145.209 82.0626C150.429 73.8537 152.694 68.0755 160.709 62.5626C168.953 56.892 175.804 58.4771 185.209 55.0626C191.139 52.9096 193.933 48.4184 200.209 49.0626C204.469 49.4998 206.318 51.7745 210.209 53.5626C226.475 61.037 234.007 69.1071 251.209 74.0626C257.355 75.8332 267.209 77.5626 267.209 77.5626V123.063C267.209 123.063 257.6 119.818 251.209 119.563C242.447 119.213 229.209 124.063 229.209 124.063C229.209 124.063 223.209 125.561 214.709 123.063C206.209 120.564 209.209 119.564 196.709 118.563C184.209 117.561 167.209 125.064 163.209 124.563C159.209 124.061 155.259 123.046 154.209 119.063C153.208 115.263 155.709 111.86 158.709 110.063C161.709 108.265 169.977 104.07 177.709 101.563C183.25 99.7659 186.989 100.649 192.209 98.0626C196.094 96.1378 201.209 91.5626 201.209 91.5626L194.709 79.0626ZM194.709 79.0626L193.709 77.0626" stroke="#030712" stroke-width="2" stroke-linecap="round" stroke-linejoin="round"/>
<path d="M201 91.5L192.012 98C192.012 98 179 96 177.5 92.5C176 89 176.525 90.5 175.013 86.5C173.5 82.5 186.012 75 186.012 75L195.012 78.5L201 91.5ZM201 91.5L193.5 89.5" stroke="#030712" stroke-linecap="round" stroke-linejoin="round"/>
<circle cx="139" cy="111" r="15" fill="#F9FAFB" stroke="#030712" stroke-width="2"/>
</g>
<defs>
<clipPath id="clip0_740_3961">
<rect width="279" height="279" rx="8" fill="white"/>
</clipPath>
</defs>
</svg>
