<svg width="402" height="874" viewBox="0 0 402 874" fill="none" xmlns="http://www.w3.org/2000/svg">
<g clip-path="url(#clip0_836_3613)">
<rect width="402" height="874" fill="#F9FAFB"/>
<g opacity="0.5" filter="url(#filter0_fg_836_3613)">
<path d="M118.736 -21.946C128.78 -31.2191 145.072 -26.6756 148.868 -13.5427L173.092 70.2687C173.885 73.0135 175.307 75.5355 177.245 77.6348L236.424 141.736C245.697 151.78 241.154 168.072 228.021 171.868L144.209 196.092C141.465 196.885 138.943 198.307 136.843 200.245L72.742 259.424C62.6976 268.697 46.4058 264.154 42.61 251.021L18.3864 167.21C17.5931 164.465 16.171 161.943 14.2329 159.843L-44.9462 95.7422C-54.2193 85.6978 -49.6757 69.4059 -36.5428 65.6102L47.2686 41.3865C50.0133 40.5932 52.5354 39.1711 54.6346 37.2331L118.736 -21.946Z" fill="url(#paint0_radial_836_3613)"/>
</g>
<g opacity="0.5" filter="url(#filter1_fg_836_3613)">
<path d="M278.28 187.412C281.73 176.011 295.39 171.41 305.036 178.401L314.186 185.033C319.585 188.946 326.751 189.414 332.613 186.237L342.628 180.809C353.205 175.077 366.262 181.602 368.027 193.502L369.549 203.764C370.547 210.496 375.393 216.02 381.938 217.887L391.998 220.756C403.68 224.088 408.398 238.094 401.111 247.814L394.837 256.185C390.755 261.631 390.239 268.961 393.516 274.925L398.513 284.017C404.307 294.56 397.858 307.655 385.968 309.49L374.711 311.227C368.121 312.243 362.699 316.951 360.767 323.333L357.493 334.15C354.042 345.552 340.383 350.153 330.737 343.162L321.586 336.53C316.187 332.617 309.022 332.148 303.16 335.326L293.145 340.753C282.568 346.486 269.511 339.96 267.746 328.06L266.224 317.798C265.226 311.066 260.379 305.542 253.835 303.676L243.775 300.806C232.093 297.475 227.375 283.469 234.661 273.748L240.936 265.377C245.017 259.932 245.534 252.601 242.256 246.637L237.26 237.546C231.466 227.002 237.914 213.907 249.804 212.073L261.062 210.336C267.652 209.319 273.074 204.611 275.006 198.229L278.28 187.412Z" fill="url(#paint1_radial_836_3613)"/>
</g>
<g opacity="0.7" filter="url(#filter2_fg_836_3613)">
<path d="M143.786 501.113C144.88 503.742 147.463 505.475 150.31 505.49C172.065 505.61 189.885 515.621 192.936 530.993C195.996 546.404 183.26 562.413 163.086 570.689C160.425 571.78 158.672 574.393 158.671 577.269C158.663 599.075 148.679 616.93 133.258 619.943C117.877 622.948 101.856 610.255 93.4968 590.169C92.4026 587.541 89.8197 585.808 86.9723 585.792C65.2174 585.672 47.3977 575.661 44.3461 560.29C41.2867 544.878 54.0221 528.869 74.1967 520.593C76.8574 519.502 78.6107 516.889 78.6117 514.013C78.6195 492.207 88.6038 474.352 104.024 471.34C119.405 468.335 135.426 481.028 143.786 501.113Z" fill="url(#paint2_radial_836_3613)"/>
</g>
<g opacity="0.5" filter="url(#filter3_fg_836_3613)">
<path d="M262.178 603.289C299.554 573.859 339.727 562.541 351.908 578.01C357.308 584.868 356.299 595.841 350.245 608.496C349.417 610.227 351.007 612.251 352.885 611.857C366.634 608.969 377.569 610.599 383.004 617.501C388.501 624.482 387.436 635.67 381.218 648.541C380.377 650.281 381.988 652.322 383.875 651.909C397.82 648.854 408.912 650.403 414.375 657.34C426.555 672.809 406.131 709.208 368.756 738.638C331.38 768.069 291.207 779.387 279.026 763.918C273.564 756.98 274.658 745.834 280.899 732.995C281.743 731.258 280.136 729.213 278.249 729.622C264.278 732.648 253.153 731.06 247.656 724.079C242.221 717.177 243.2 706.163 249.233 693.476C250.056 691.743 248.461 689.722 246.585 690.121C232.862 693.038 221.96 691.446 216.559 684.587C204.378 669.118 224.803 632.72 262.178 603.289Z" fill="url(#paint3_radial_836_3613)"/>
</g>
<g opacity="0.5" filter="url(#filter4_fg_836_3613)">
<path d="M35.659 666.613C76.4583 656.472 117.742 680.499 129.337 720.535C129.802 722.142 131.445 723.131 133.084 722.79C173.889 714.289 214.449 739.518 224.591 780.318C234.977 822.103 209.524 864.397 167.738 874.783L38.2451 906.972C26.1917 909.968 13.9915 902.626 10.9954 890.572L-21.1932 761.079C-31.5799 719.294 -6.1263 677 35.659 666.613Z" fill="url(#paint4_radial_836_3613)"/>
</g>
<g opacity="0.7" filter="url(#filter5_g_836_3613)">
<rect y="3" width="402" height="871" fill="#F9FAFB"/>
</g>
</g>
<defs>
<filter id="filter0_fg_836_3613" x="-59.4847" y="-36.4838" width="310.448" height="310.448" filterUnits="userSpaceOnUse" color-interpolation-filters="sRGB">
<feFlood flood-opacity="0" result="BackgroundImageFix"/>
<feBlend mode="normal" in="SourceGraphic" in2="BackgroundImageFix" result="shape"/>
<feGaussianBlur stdDeviation="1.20647" result="effect1_foregroundBlur_836_3613"/>
<feTurbulence type="fractalNoise" baseFrequency="0.99900001287460327 0.99900001287460327" numOctaves="3" seed="6333" />
<feDisplacementMap in="effect1_foregroundBlur_836_3613" scale="19.303468704223633" xChannelSelector="R" yChannelSelector="G" result="displacedImage" width="100%" height="100%" />
<feMerge result="effect2_texture_836_3613">
<feMergeNode in="displacedImage"/>
</feMerge>
</filter>
<filter id="filter1_fg_836_3613" x="225.729" y="169.635" width="184.314" height="182.293" filterUnits="userSpaceOnUse" color-interpolation-filters="sRGB">
<feFlood flood-opacity="0" result="BackgroundImageFix"/>
<feBlend mode="normal" in="SourceGraphic" in2="BackgroundImageFix" result="shape"/>
<feGaussianBlur stdDeviation="0.682344" result="effect1_foregroundBlur_836_3613"/>
<feTurbulence type="fractalNoise" baseFrequency="0.99900001287460327 0.99900001287460327" numOctaves="3" seed="6333" />
<feDisplacementMap in="effect1_foregroundBlur_836_3613" scale="10.917501449584961" xChannelSelector="R" yChannelSelector="G" result="displacedImage" width="100%" height="100%" />
<feMerge result="effect2_texture_836_3613">
<feMergeNode in="displacedImage"/>
</feMerge>
</filter>
<filter id="filter2_fg_836_3613" x="38.914" y="465.921" width="159.454" height="159.442" filterUnits="userSpaceOnUse" color-interpolation-filters="sRGB">
<feFlood flood-opacity="0" result="BackgroundImageFix"/>
<feBlend mode="normal" in="SourceGraphic" in2="BackgroundImageFix" result="shape"/>
<feGaussianBlur stdDeviation="0.622449" result="effect1_foregroundBlur_836_3613"/>
<feTurbulence type="fractalNoise" baseFrequency="0.99900001287460327 0.99900001287460327" numOctaves="3" seed="6333" />
<feDisplacementMap in="effect1_foregroundBlur_836_3613" scale="9.9591836929321289" xChannelSelector="R" yChannelSelector="G" result="displacedImage" width="100%" height="100%" />
<feMerge result="effect2_texture_836_3613">
<feMergeNode in="displacedImage"/>
</feMerge>
</filter>
<filter id="filter3_fg_836_3613" x="206.215" y="564.265" width="218.503" height="213.4" filterUnits="userSpaceOnUse" color-interpolation-filters="sRGB">
<feFlood flood-opacity="0" result="BackgroundImageFix"/>
<feBlend mode="normal" in="SourceGraphic" in2="BackgroundImageFix" result="shape"/>
<feGaussianBlur stdDeviation="0.852653" result="effect1_foregroundBlur_836_3613"/>
<feTurbulence type="fractalNoise" baseFrequency="0.99900001287460327 0.99900001287460327" numOctaves="3" seed="6333" />
<feDisplacementMap in="effect1_foregroundBlur_836_3613" scale="13.642447471618652" xChannelSelector="R" yChannelSelector="G" result="displacedImage" width="100%" height="100%" />
<feMerge result="effect2_texture_836_3613">
<feMergeNode in="displacedImage"/>
</feMerge>
</filter>
<filter id="filter4_fg_836_3613" x="-33.0605" y="654.747" width="269.518" height="262.44" filterUnits="userSpaceOnUse" color-interpolation-filters="sRGB">
<feFlood flood-opacity="0" result="BackgroundImageFix"/>
<feBlend mode="normal" in="SourceGraphic" in2="BackgroundImageFix" result="shape"/>
<feGaussianBlur stdDeviation="1.19329" result="effect1_foregroundBlur_836_3613"/>
<feTurbulence type="fractalNoise" baseFrequency="0.99900001287460327 0.99900001287460327" numOctaves="3" seed="6054" />
<feDisplacementMap in="effect1_foregroundBlur_836_3613" scale="19.092596054077148" xChannelSelector="R" yChannelSelector="G" result="displacedImage" width="100%" height="100%" />
<feMerge result="effect2_texture_836_3613">
<feMergeNode in="displacedImage"/>
</feMerge>
</filter>
<filter id="filter5_g_836_3613" x="-50" y="-47" width="502" height="971" filterUnits="userSpaceOnUse" color-interpolation-filters="sRGB">
<feFlood flood-opacity="0" result="BackgroundImageFix"/>
<feBlend mode="normal" in="SourceGraphic" in2="BackgroundImageFix" result="shape"/>
<feTurbulence type="fractalNoise" baseFrequency="0.99900001287460327 0.99900001287460327" numOctaves="3" seed="9734" />
<feDisplacementMap in="shape" scale="100" xChannelSelector="R" yChannelSelector="G" result="displacedImage" width="100%" height="100%" />
<feMerge result="effect1_texture_836_3613">
<feMergeNode in="displacedImage"/>
</feMerge>
</filter>
<radialGradient id="paint0_radial_836_3613" cx="0" cy="0" r="1" gradientUnits="userSpaceOnUse" gradientTransform="translate(82.1012 43.2623) rotate(76.2251) scale(163.506)">
<stop stop-color="#B6EEA5"/>
<stop offset="1" stop-color="#71DE4F"/>
</radialGradient>
<radialGradient id="paint1_radial_836_3613" cx="0" cy="0" r="1" gradientTransform="matrix(80.8379 57.1636 -58.7861 80.3406 275.131 237.267)" gradientUnits="userSpaceOnUse">
<stop stop-color="#ADD6FA"/>
<stop offset="1" stop-color="#4DA6F5"/>
</radialGradient>
<radialGradient id="paint2_radial_836_3613" cx="0" cy="0" r="1" gradientTransform="matrix(11.8366 104.48 -104.251 11.495 114.578 511.044)" gradientUnits="userSpaceOnUse">
<stop stop-color="#FAEDAD"/>
<stop offset="1" stop-color="#F5D94D"/>
</radialGradient>
<radialGradient id="paint3_radial_836_3613" cx="0" cy="0" r="1" gradientUnits="userSpaceOnUse" gradientTransform="translate(261.786 654.646) rotate(17.1308) scale(144.143)">
<stop stop-color="#D9ADFA"/>
<stop offset="1" stop-color="#AC4DF5"/>
</radialGradient>
<radialGradient id="paint4_radial_836_3613" cx="0" cy="0" r="1" gradientUnits="userSpaceOnUse" gradientTransform="translate(44.7258 751.483) rotate(45.341) scale(176.208)">
<stop stop-color="#F77D7D"/>
<stop offset="1" stop-color="#F21C1C"/>
</radialGradient>
<clipPath id="clip0_836_3613">
<rect width="402" height="874" fill="white"/>
</clipPath>
</defs>
</svg>
