<svg width="279" height="279" viewBox="0 0 279 279" fill="none" xmlns="http://www.w3.org/2000/svg">
<rect width="279" height="279" rx="8" fill="white"/>
<mask id="path-2-inside-1_740_3919" fill="white">
<path d="M139 42C150.046 42 159 50.9543 159 62V76C159 87.0457 150.046 96 139 96H72.3379L60.1807 113.171L57.2451 95.4297C48.4951 93.2958 42 85.4071 42 76V62C42 50.9543 50.9543 42 62 42H139Z"/>
</mask>
<path d="M139 42C150.046 42 159 50.9543 159 62V76C159 87.0457 150.046 96 139 96H72.3379L60.1807 113.171L57.2451 95.4297C48.4951 93.2958 42 85.4071 42 76V62C42 50.9543 50.9543 42 62 42H139Z" fill="white"/>
<path d="M159 76H161V76H159ZM139 96V98V98V96ZM72.3379 96V94H71.3034L70.7056 94.8443L72.3379 96ZM60.1807 113.171L58.2075 113.497L59.0017 118.297L61.813 114.327L60.1807 113.171ZM57.2451 95.4297L59.2183 95.1032L59.0026 93.7997L57.719 93.4866L57.2451 95.4297ZM42 62H40V62H42ZM62 42V40V40V42ZM139 42V44C148.941 44 157 52.0589 157 62H159H161C161 49.8497 151.15 40 139 40V42ZM159 62H157V76H159H161V62H159ZM159 76H157C157 85.9411 148.941 94 139 94V96V98C151.15 98 161 88.1503 161 76H159ZM139 96V94H72.3379V96V98H139V96ZM72.3379 96L70.7056 94.8443L58.5484 112.015L60.1807 113.171L61.813 114.327L73.9702 97.1557L72.3379 96ZM60.1807 113.171L62.1538 112.844L59.2183 95.1032L57.2451 95.4297L55.2719 95.7562L58.2075 113.497L60.1807 113.171ZM57.2451 95.4297L57.719 93.4866C49.8436 91.566 44 84.4635 44 76H42H40C40 86.3507 47.1465 95.0255 56.7713 97.3727L57.2451 95.4297ZM42 76H44V62H42H40V76H42ZM42 62H44C44 52.0589 52.0589 44 62 44V42V40C49.8497 40 40 49.8497 40 62H42ZM62 42V44H139V42V40H62V42Z" fill="black" mask="url(#path-2-inside-1_740_3919)"/>
<mask id="path-4-inside-2_740_3919" fill="white">
<path d="M88 113C76.9543 113 68 121.954 68 133V147C68 158.046 76.9543 167 88 167H206.662L218.819 184.171L221.755 166.43C230.505 164.296 237 156.407 237 147V133C237 121.954 228.046 113 217 113H88Z"/>
</mask>
<path d="M88 113C76.9543 113 68 121.954 68 133V147C68 158.046 76.9543 167 88 167H206.662L218.819 184.171L221.755 166.43C230.505 164.296 237 156.407 237 147V133C237 121.954 228.046 113 217 113H88Z" fill="white"/>
<path d="M68 147H66V147H68ZM88 167V169V167ZM206.662 167V165H207.697L208.294 165.844L206.662 167ZM218.819 184.171L220.793 184.497L219.998 189.297L217.187 185.327L218.819 184.171ZM221.755 166.43L219.782 166.103L219.997 164.8L221.281 164.487L221.755 166.43ZM237 133H239V133H237ZM217 113V111V113ZM88 113V115C78.0589 115 70 123.059 70 133H68H66C66 120.85 75.8497 111 88 111V113ZM68 133H70V147H68H66V133H68ZM68 147H70C70 156.941 78.0589 165 88 165V167V169C75.8497 169 66 159.15 66 147H68ZM88 167V165H206.662V167V169H88V167ZM206.662 167L208.294 165.844L220.452 183.015L218.819 184.171L217.187 185.327L205.03 168.156L206.662 167ZM218.819 184.171L216.846 183.844L219.782 166.103L221.755 166.43L223.728 166.756L220.793 184.497L218.819 184.171ZM221.755 166.43L221.281 164.487C229.156 162.566 235 155.464 235 147H237H239C239 157.351 231.853 166.025 222.229 168.373L221.755 166.43ZM237 147H235V133H237H239V147H237ZM237 133H235C235 123.059 226.941 115 217 115V113V111C229.15 111 239 120.85 239 133H237ZM217 113V115H88V113V111H217V113Z" fill="black" mask="url(#path-4-inside-2_740_3919)"/>
<mask id="path-6-inside-3_740_3919" fill="white">
<path d="M139 177C150.046 177 159 185.954 159 197V201C159 212.046 150.046 221 139 221H89.3379L77.1807 238.171L74.2451 220.43C65.4951 218.296 59 210.407 59 201V197C59 185.954 67.9543 177 79 177H139Z"/>
</mask>
<path d="M139 177C150.046 177 159 185.954 159 197V201C159 212.046 150.046 221 139 221H89.3379L77.1807 238.171L74.2451 220.43C65.4951 218.296 59 210.407 59 201V197C59 185.954 67.9543 177 79 177H139Z" fill="white"/>
<path d="M159 197H161V197H159ZM139 221V223V223V221ZM89.3379 221V219H88.3034L87.7056 219.844L89.3379 221ZM77.1807 238.171L75.2075 238.497L76.0017 243.297L78.813 239.327L77.1807 238.171ZM74.2451 220.43L76.2183 220.103L76.0026 218.8L74.719 218.487L74.2451 220.43ZM59 201H57V201H59ZM79 177V175V175V177ZM139 177V179C148.941 179 157 187.059 157 197H159H161C161 184.85 151.15 175 139 175V177ZM159 197H157V201H159H161V197H159ZM159 201H157C157 210.941 148.941 219 139 219V221V223C151.15 223 161 213.15 161 201H159ZM139 221V219H89.3379V221V223H139V221ZM89.3379 221L87.7056 219.844L75.5484 237.015L77.1807 238.171L78.813 239.327L90.9702 222.156L89.3379 221ZM77.1807 238.171L79.1538 237.844L76.2183 220.103L74.2451 220.43L72.2719 220.756L75.2075 238.497L77.1807 238.171ZM74.2451 220.43L74.719 218.487C66.8436 216.566 61 209.464 61 201H59H57C57 211.351 64.1465 220.025 73.7713 222.373L74.2451 220.43ZM59 201H61V197H59H57V201H59ZM59 197H61C61 187.059 69.0589 179 79 179V177V175C66.8497 175 57 184.85 57 197H59ZM79 177V179H139V177V175H79V177Z" fill="black" mask="url(#path-6-inside-3_740_3919)"/>
<path d="M83.5319 64.752C83.5143 67.5469 85.1315 70.3945 87.487 71.5371L86.4499 72.873C84.736 71.9854 83.4089 70.2188 82.7233 68.1094C82.0114 70.3594 80.6315 72.2402 78.8386 73.1719L77.8014 71.8184C80.2272 70.6582 81.862 67.6348 81.862 64.752V62.0625H83.5319V64.752ZM90.3346 60.7441V67.0195H92.8659V68.4434H90.3346V76.4941H88.6647V60.7441H90.3346ZM106.177 60.7617V64.6113H108.479V66H106.177V70.2363H104.507V60.7617H106.177ZM101.606 61.7109V66.123H96.1221V68.0391C98.8555 68.0303 100.789 67.9336 103.083 67.5469L103.259 68.9004C100.815 69.3398 98.7412 69.4277 95.7178 69.4102H94.4521V64.8398H99.9717V63.0645H94.4346V61.7109H101.606ZM101.079 70.6582C104.313 70.6582 106.317 71.748 106.317 73.5762C106.317 75.4043 104.313 76.459 101.079 76.459C97.792 76.459 95.7881 75.4043 95.7881 73.5762C95.7881 71.748 97.792 70.6582 101.079 70.6582ZM101.079 71.9766C98.7764 71.9766 97.4229 72.5566 97.4229 73.5762C97.4229 74.5957 98.7764 75.1934 101.079 75.1758C103.364 75.1934 104.683 74.5957 104.683 73.5762C104.683 72.5566 103.364 71.9766 101.079 71.9766ZM117.326 63.3457V64.6992H109.503V63.3457H112.597V61.2012H114.249V63.3457H117.326ZM113.423 65.6484C115.427 65.6484 116.833 67.1426 116.851 69.2695C116.833 71.4141 115.427 72.9258 113.423 72.9258C111.454 72.9258 109.995 71.4141 110.013 69.2695C109.995 67.1426 111.454 65.6484 113.423 65.6484ZM113.423 67.0371C112.281 67.0371 111.49 67.9688 111.49 69.2695C111.49 70.6055 112.281 71.502 113.423 71.502C114.548 71.502 115.374 70.6055 115.374 69.2695C115.374 67.9688 114.548 67.0371 113.423 67.0371ZM123.021 60.7441V76.4941H121.439V68.6719H119.628V75.7559H118.046V61.0957H119.628V67.3008H121.439V60.7441H123.021Z" fill="black"/>
<path d="M106.994 192.912V201.225H105.696V197.027H103.03V199.324H97.3421V193.801H103.03V195.961H105.696V192.912H106.994ZM98.6273 194.867V198.271H101.758V194.867H98.6273ZM103.645 200.801C103.645 202.387 105.395 203.727 107.733 204.082L107.213 205.107C105.306 204.793 103.706 203.843 102.975 202.496C102.23 203.829 100.63 204.793 98.7093 205.107L98.2445 204.082C100.514 203.713 102.305 202.332 102.319 200.801V200.377H103.645V200.801ZM119.248 192.912V205.162H117.949V200.008H115.597V198.928H117.949V197.41H115.597V196.33H117.949V192.912H119.248ZM113.396 196.357C113.396 198.271 114.709 200.609 116.541 201.525L115.761 202.523C114.415 201.833 113.328 200.363 112.781 198.709C112.234 200.521 111.133 202.072 109.773 202.824L108.912 201.84C110.758 200.924 112.07 198.559 112.084 196.357V195.209H109.377V194.143H116.09V195.209H113.396V196.357Z" fill="black"/>
<path d="M105.982 132.078C109.771 132.078 112.564 133.973 112.564 136.844C112.564 139.49 110.288 141.258 107.056 141.57V144.812H114.087V146.59H97.9543V144.812H104.907V141.57C101.695 141.258 99.4191 139.49 99.4387 136.844C99.4191 133.973 102.212 132.078 105.982 132.078ZM105.982 133.836C103.404 133.816 101.548 134.988 101.568 136.844C101.548 138.758 103.404 139.891 105.982 139.891C108.599 139.891 110.435 138.758 110.435 136.844C110.435 134.988 108.599 133.816 105.982 133.836ZM129.697 134.891V136.629H117.51V131.316H119.639V134.891H129.697ZM131.553 137.977V139.715H115.42V137.977H131.553ZM129.58 140.945V145.457H119.541V146.824H130.166V148.523H117.354V143.875H127.432V142.625H117.334V140.945H129.58ZM147.261 139.109V140.828H142.026V144.871H149.057V146.648H132.925V144.871H139.878V140.828H134.878V132.391H147.124V134.129H137.046V139.109H147.261ZM170.063 131.082V141.766H167.875V131.082H170.063ZM170.063 142.566V148.523H158.344V142.566H170.063ZM160.493 144.285V146.766H167.934V144.285H160.493ZM166.313 132.781V134.52H155.571V132.781H159.868V130.965H162.055V132.781H166.313ZM160.961 135.164C163.618 135.164 165.356 136.414 165.356 138.328C165.356 140.262 163.618 141.492 160.961 141.492C158.325 141.492 156.547 140.262 156.567 138.328C156.547 136.414 158.325 135.164 160.961 135.164ZM160.961 136.785C159.536 136.785 158.637 137.332 158.637 138.328C158.637 139.305 159.536 139.871 160.961 139.871C162.368 139.871 163.286 139.305 163.286 138.328C163.286 137.332 162.368 136.785 160.961 136.785ZM187.997 131.082V148.738H185.907V139.812H183.954V147.84H181.923V131.414H183.954V138.035H185.907V131.082H187.997ZM175.79 133.113V142.43C177.314 142.4 178.984 142.273 180.829 141.902L181.044 143.797C178.661 144.227 176.65 144.344 174.775 144.344H173.603V133.113H175.79ZM191.615 140.887C192.26 140.184 193.08 139.812 193.979 139.812C195.541 139.812 196.889 140.906 198.451 140.906C199.35 140.906 200.131 140.535 200.756 139.793V141.922C200.111 142.645 199.291 142.996 198.393 142.996C196.83 142.996 195.463 141.902 193.92 141.902C193.021 141.902 192.24 142.273 191.615 143.016V140.887ZM207.05 132.859L206.835 142.84H204.628L204.393 132.859H207.05ZM205.741 147.156C204.901 147.156 204.218 146.473 204.218 145.633C204.218 144.812 204.901 144.129 205.741 144.129C206.542 144.129 207.245 144.812 207.245 145.633C207.245 146.473 206.542 147.156 205.741 147.156Z" fill="black"/>
</svg>
